<svg width="36" height="36" viewBox="0 0 36 36" fill="none" xmlns="http://www.w3.org/2000/svg">
<path d="M32.3719 11.1358C32.2021 10.53 31.8713 9.9815 31.4146 9.54867C30.9451 9.10253 30.3696 8.78339 29.7425 8.62139C27.3956 8.00278 17.9927 8.00278 17.9927 8.00278C14.0728 7.95818 10.1538 8.15434 6.25795 8.59014C5.63083 8.76412 5.05643 9.09039 4.58584 9.53992C4.12344 9.98482 3.78852 10.5334 3.61356 11.1346C3.19327 13.3987 2.98907 15.6977 3.0037 18.0005C2.9887 20.3012 3.19241 22.5994 3.61356 24.8664C3.78477 25.465 4.11844 26.0111 4.58209 26.4523C5.04573 26.8934 5.6231 27.2121 6.25795 27.3808C8.63615 27.9982 17.9927 27.9982 17.9927 27.9982C21.9177 28.0428 25.8416 27.8467 29.7425 27.4108C30.3696 27.2488 30.9451 26.9297 31.4146 26.4835C31.877 26.0424 32.2057 25.4937 32.3707 24.8964C32.8019 22.6331 33.0116 20.3332 32.9968 18.0292C33.0292 15.7155 32.8198 13.4047 32.3719 11.1346V11.1358ZM15.0034 22.2795V13.7227L22.8266 18.0017L15.0034 22.2795Z" fill="#8D86C9"/>
</svg>
